<svg aria-hidden="true" style="position: absolute; width: 0; height: 0; overflow: hidden;" version="1.1" xmlns="http://www.w3.org/2000/svg" xmlns:xlink="http://www.w3.org/1999/xlink">
<defs>
<symbol id="icon-burger-menu" viewBox="0 0 44 32">
<path d="M0 2.4c0-0.636 0.218-1.246 0.604-1.698 0.35-0.423 0.873-0.693 1.458-0.702l0.002-0h39.874c0.546 0 1.070 0.252 1.458 0.702 0.386 0.452 0.604 1.060 0.604 1.698 0 0.636-0.218 1.246-0.604 1.698-0.35 0.423-0.873 0.693-1.459 0.702l-0.002 0h-39.872c-0.587-0.009-1.11-0.279-1.457-0.699l-0.003-0.003c-0.376-0.449-0.604-1.033-0.604-1.671 0-0.010 0-0.019 0-0.029v0.001zM0 16c0-0.636 0.218-1.246 0.604-1.698 0.35-0.423 0.873-0.693 1.458-0.702l0.002-0h39.874c0.546 0 1.070 0.252 1.458 0.702 0.386 0.452 0.604 1.060 0.604 1.698 0 0.636-0.218 1.246-0.604 1.698-0.35 0.423-0.873 0.693-1.459 0.702l-0.002 0h-39.872c-0.587-0.009-1.11-0.279-1.457-0.699l-0.003-0.003c-0.376-0.449-0.604-1.033-0.604-1.671 0-0.010 0-0.019 0-0.029v0.001zM2.062 27.2c-0.587 0.009-1.11 0.279-1.457 0.699l-0.003 0.003c-0.384 0.452-0.602 1.060-0.602 1.698 0 0.636 0.218 1.246 0.604 1.696 0.35 0.424 0.873 0.695 1.458 0.704l0.002 0h26.124c0.587-0.009 1.108-0.279 1.455-0.699l0.003-0.003c0.386-0.45 0.604-1.060 0.604-1.698 0-0.636-0.218-1.246-0.604-1.698-0.35-0.423-0.873-0.693-1.459-0.702l-0.001-0h-26.122z"></path>
</symbol>
<symbol id="icon-icon-crypt4" viewBox="0 0 33 32">
<path d="M7.113 28.565l14.129-0.009c1.71-0.011 3.101-1.425 3.101-3.151v-14.513h4.349c0.173-0.001 0.313-0.141 0.313-0.314 0-0 0-0.001 0-0.001v0-4.487c0-1.503-1.21-2.725-2.698-2.725l-17.343 0.009c-1.71 0.011-3.1 1.425-3.1 3.151v15.807h-1.569c-0.173 0.001-0.313 0.141-0.313 0.314 0 0 0 0.001 0 0.001v-0 2.756c0 1.744 1.405 3.163 3.132 3.163zM28.377 6.089v4.173h-4.036v-4.332c0-1.067 0.862-1.936 1.921-1.936h0.042c1.143 0 2.072 0.94 2.072 2.095zM6.487 6.525c0-1.382 1.112-2.513 2.477-2.522l15.631-0.008c-0.541 0.473-0.88 1.164-0.88 1.935 0 0 0 0 0 0.001v-0 19.475c0 1.382-1.112 2.512-2.488 2.522l-0.242 0.009c-1.38-0.002-2.503-1.137-2.503-2.533v-2.756c0-0 0-0.001 0-0.001 0-0.173-0.14-0.313-0.313-0.314h-11.682v-15.806zM4.606 22.961h13.25v2.441c0 0.001 0 0.002 0 0.004 0 1.029 0.49 1.944 1.25 2.523l0.008 0.006h-12.002c-1.382 0-2.507-1.136-2.507-2.533v-2.441z"></path>
<path d="M9.469 19.532h-0.898c-0.173 0.001-0.313 0.141-0.313 0.314 0 0 0 0.001 0 0.001v-0c0 0.175 0.14 0.315 0.313 0.315h0.898c0.173 0 0.313-0.141 0.313-0.315 0-0 0-0.001 0-0.001 0-0.173-0.14-0.313-0.313-0.314h-0zM11.921 19.532h-0.898c-0.173 0.001-0.313 0.141-0.313 0.314 0 0 0 0.001 0 0.001v-0c0 0.175 0.14 0.315 0.313 0.315h0.898c0.173 0 0.313-0.141 0.313-0.315 0-0 0-0.001 0-0.001 0-0.173-0.14-0.313-0.313-0.314h-0zM14.373 19.532h-0.898c-0.173 0.001-0.313 0.141-0.313 0.314 0 0 0 0.001 0 0.001v-0c0 0.175 0.141 0.315 0.313 0.315h0.898c0.173 0 0.313-0.141 0.313-0.315 0-0.174-0.141-0.315-0.313-0.315zM16.825 19.532h-0.898c-0.173 0.001-0.313 0.141-0.313 0.314 0 0 0 0.001 0 0.001v-0c0 0.175 0.14 0.315 0.313 0.315h0.898c0.173 0 0.313-0.141 0.313-0.315 0-0 0-0.001 0-0.001 0-0.173-0.14-0.313-0.313-0.314h-0zM19.278 20.162c0.173-0.001 0.313-0.141 0.313-0.314 0-0 0-0.001 0-0.001v0c0-0 0-0.001 0-0.001 0-0.173-0.14-0.313-0.313-0.314h-0.898c-0.173 0.001-0.313 0.141-0.313 0.314 0 0 0 0.001 0 0.001v-0c0 0.174 0.141 0.315 0.313 0.315h0.898zM20.831 20.162h0.898c0.173-0.001 0.313-0.141 0.313-0.314 0-0 0-0.001 0-0.001v0c0-0 0-0.001 0-0.001 0-0.173-0.14-0.313-0.313-0.314h-0.899c-0.173 0.001-0.313 0.141-0.313 0.314 0 0 0 0.001 0 0.001v-0c0 0.174 0.14 0.315 0.313 0.315zM9.469 16.733h-0.898c-0.173 0.001-0.313 0.141-0.313 0.314 0 0 0 0.001 0 0.001v-0c0 0.175 0.14 0.315 0.313 0.315h0.898c0.173-0.001 0.313-0.141 0.313-0.314 0-0 0-0.001 0-0.001v0c0-0 0-0.001 0-0.001 0-0.173-0.14-0.313-0.313-0.314h-0zM11.921 16.733h-0.898c-0.173 0.001-0.313 0.141-0.313 0.314 0 0 0 0.001 0 0.001v-0c0 0.175 0.14 0.315 0.313 0.315h0.898c0.173-0.001 0.313-0.141 0.313-0.314 0-0 0-0.001 0-0.001v0c0-0 0-0.001 0-0.001 0-0.173-0.14-0.313-0.313-0.314h-0zM14.373 16.733h-0.898c-0.173 0.001-0.313 0.141-0.313 0.314 0 0 0 0.001 0 0.001v-0c0 0.175 0.141 0.315 0.313 0.315h0.898c0.173-0.001 0.313-0.141 0.313-0.314 0-0 0-0.001 0-0.001v0c0-0.174-0.141-0.315-0.313-0.315zM16.825 16.733h-0.898c-0.173 0.001-0.313 0.141-0.313 0.314 0 0 0 0.001 0 0.001v-0c0 0.175 0.14 0.315 0.313 0.315h0.898c0.173-0.001 0.313-0.141 0.313-0.314 0-0 0-0.001 0-0.001v0c0-0 0-0.001 0-0.001 0-0.173-0.14-0.313-0.313-0.314h-0zM18.379 17.363h0.898c0.173 0 0.313-0.141 0.313-0.315 0-0 0-0.001 0-0.001 0-0.173-0.14-0.313-0.313-0.314h-0.898c-0.173 0.001-0.313 0.141-0.313 0.314 0 0 0 0.001 0 0.001v-0c0 0.174 0.141 0.315 0.313 0.315zM20.831 17.363h0.898c0.173 0 0.313-0.141 0.313-0.315 0-0 0-0.001 0-0.001 0-0.173-0.14-0.313-0.313-0.314h-0.899c-0.173 0.001-0.313 0.141-0.313 0.314 0 0 0 0.001 0 0.001v-0c0 0.174 0.14 0.315 0.313 0.315zM9.469 13.935h-0.898c-0.173 0.001-0.313 0.141-0.313 0.314 0 0 0 0 0 0.001v-0c0 0.174 0.14 0.315 0.313 0.315h0.898c0.173-0.001 0.313-0.141 0.313-0.314 0-0 0-0.001 0-0.001v0c0-0 0-0.001 0-0.001 0-0.173-0.14-0.313-0.313-0.314h-0zM11.921 13.935h-0.898c-0.173 0.001-0.313 0.141-0.313 0.314 0 0 0 0 0 0.001v-0c0 0.174 0.14 0.315 0.313 0.315h0.898c0.173-0.001 0.313-0.141 0.313-0.314 0-0 0-0.001 0-0.001v0c0-0 0-0.001 0-0.001 0-0.173-0.14-0.313-0.313-0.314h-0zM14.373 13.935h-0.898c-0.173 0.001-0.313 0.141-0.313 0.314 0 0 0 0 0 0.001v-0c0 0.174 0.141 0.315 0.313 0.315h0.898c0.173-0.001 0.313-0.141 0.313-0.314 0-0 0-0.001 0-0.001v0c0-0.174-0.141-0.315-0.313-0.315zM16.825 13.935h-0.898c-0.173 0.001-0.313 0.141-0.313 0.314 0 0 0 0 0 0.001v-0c0 0.174 0.14 0.315 0.313 0.315h0.898c0.173-0.001 0.313-0.141 0.313-0.314 0-0 0-0.001 0-0.001v0c0-0 0-0.001 0-0.001 0-0.173-0.14-0.313-0.313-0.314h-0zM18.379 14.564h0.898c0.173 0 0.313-0.141 0.313-0.315 0-0 0-0.001 0-0.001 0-0.173-0.14-0.313-0.313-0.314h-0.898c-0.173 0.001-0.313 0.141-0.313 0.314 0 0 0 0.001 0 0.001v-0c0 0.175 0.141 0.315 0.313 0.315zM20.831 14.564h0.898c0.173 0 0.313-0.141 0.313-0.315 0-0 0-0.001 0-0.001 0-0.173-0.14-0.313-0.313-0.314h-0.899c-0.173 0.001-0.313 0.141-0.313 0.314 0 0 0 0.001 0 0.001v-0c0 0.175 0.14 0.315 0.313 0.315zM9.469 11.135h-0.898c-0.173 0.001-0.313 0.141-0.313 0.314 0 0 0 0.001 0 0.001v-0c0 0.174 0.14 0.315 0.313 0.315h0.898c0.173-0.001 0.313-0.141 0.313-0.314 0-0 0-0.001 0-0.001v0c0-0 0-0.001 0-0.001 0-0.173-0.14-0.313-0.313-0.314h-0zM11.921 11.135h-0.898c-0.173 0.001-0.313 0.141-0.313 0.314 0 0 0 0.001 0 0.001v-0c0 0.174 0.14 0.315 0.313 0.315h0.898c0.173-0.001 0.313-0.141 0.313-0.314 0-0 0-0.001 0-0.001v0c0-0 0-0.001 0-0.001 0-0.173-0.14-0.313-0.313-0.314h-0zM14.373 11.135h-0.898c-0.173 0.001-0.313 0.141-0.313 0.314 0 0 0 0.001 0 0.001v-0c0 0.174 0.141 0.315 0.313 0.315h0.898c0.173-0.001 0.313-0.141 0.313-0.314 0-0 0-0.001 0-0.001v0c0-0.175-0.141-0.315-0.313-0.315zM16.825 11.135h-0.898c-0.173 0.001-0.313 0.141-0.313 0.314 0 0 0 0.001 0 0.001v-0c0 0.174 0.14 0.315 0.313 0.315h0.898c0.173-0.001 0.313-0.141 0.313-0.314 0-0 0-0.001 0-0.001v0c0-0 0-0.001 0-0.001 0-0.173-0.14-0.313-0.313-0.314h-0zM18.379 11.766h0.898c0.173-0.001 0.313-0.141 0.313-0.314 0-0 0-0.001 0-0.001v0c0-0 0-0.001 0-0.001 0-0.173-0.14-0.313-0.313-0.314h-0.898c-0.173 0.001-0.313 0.141-0.313 0.314 0 0 0 0.001 0 0.001v-0c0 0.174 0.141 0.315 0.313 0.315zM20.831 11.766h0.898c0.173-0.001 0.313-0.141 0.313-0.314 0-0 0-0.001 0-0.001v0c0-0 0-0.001 0-0.001 0-0.173-0.14-0.313-0.313-0.314h-0.899c-0.173 0.001-0.313 0.141-0.313 0.314 0 0 0 0.001 0 0.001v-0c0 0.174 0.14 0.315 0.313 0.315zM9.469 8.336h-0.898c-0.173 0.001-0.313 0.141-0.313 0.314 0 0 0 0.001 0 0.001v-0c0 0.174 0.14 0.315 0.313 0.315h0.898c0.173-0.001 0.313-0.141 0.313-0.314 0-0 0-0.001 0-0.001v0c0-0 0-0.001 0-0.001 0-0.173-0.14-0.313-0.313-0.314h-0zM11.921 8.336h-0.898c-0.173 0.001-0.313 0.141-0.313 0.314 0 0 0 0.001 0 0.001v-0c0 0.174 0.14 0.315 0.313 0.315h0.898c0.173-0.001 0.313-0.141 0.313-0.314 0-0 0-0.001 0-0.001v0c0-0 0-0.001 0-0.001 0-0.173-0.14-0.313-0.313-0.314h-0zM14.373 8.336h-0.898c-0.173 0.001-0.313 0.141-0.313 0.314 0 0 0 0.001 0 0.001v-0c0 0.174 0.141 0.315 0.313 0.315h0.898c0.173-0.001 0.313-0.141 0.313-0.314 0-0 0-0.001 0-0.001v0c0-0.175-0.141-0.315-0.313-0.315zM16.825 8.336h-0.898c-0.173 0.001-0.313 0.141-0.313 0.314 0 0 0 0.001 0 0.001v-0c0 0.174 0.14 0.315 0.313 0.315h0.898c0.173-0.001 0.313-0.141 0.313-0.314 0-0 0-0.001 0-0.001v0c0-0 0-0.001 0-0.001 0-0.173-0.14-0.313-0.313-0.314h-0zM18.379 8.966h0.898c0.173 0 0.313-0.141 0.313-0.315 0-0 0-0.001 0-0.001 0-0.173-0.14-0.313-0.313-0.314h-0.898c-0.173 0.001-0.313 0.141-0.313 0.314 0 0 0 0.001 0 0.001v-0c0 0.175 0.141 0.315 0.313 0.315zM20.831 8.966h0.898c0.173 0 0.313-0.141 0.313-0.315 0-0 0-0.001 0-0.001 0-0.173-0.14-0.313-0.313-0.314h-0.899c-0.173 0.001-0.313 0.141-0.313 0.314 0 0 0 0.001 0 0.001v-0c0 0.175 0.14 0.315 0.313 0.315z"></path>
</symbol>
<symbol id="icon-diagram" viewBox="0 0 46 32">
<path fill="none" stroke="#f5683b" style="stroke: var(--color3, #f5683b)" stroke-linejoin="miter" stroke-linecap="round" stroke-miterlimit="4" stroke-width="0.7328" d="M45.976 17.435c-2.366-1.757-2.506-14.416-5.568-14.416-3.061 0-2.365 21.45-5.568 21.45-3.2 0-2.992-9.506-5.845-9.494-2.854 0.013-2.227 13.712-5.29 13.712s-3.045-9.141-5.429-9.141c-2.645 0-3.619-8.088-5.707-7.736s-3.339 8.79-5.568 8.79c-2.226 0-3.757-5.274-5.568-5.274"></path>
</symbol>
<symbol id="icon-instagram" viewBox="0 0 32 32">
<path d="M22 0h-12c-5.523 0-10 4.477-10 10v0 12c0 5.523 4.477 10 10 10v0h12c5.523 0 10-4.477 10-10v0-12c0-5.523-4.477-10-10-10v0zM29 22c-0.005 3.864-3.136 6.995-7 7h-12c-3.864-0.005-6.995-3.136-7-7v-12c0.005-3.864 3.136-6.995 7-7h12c3.864 0.005 6.995 3.136 7 7v12z"></path>
<path d="M16 8c-4.418 0-8 3.582-8 8s3.582 8 8 8v0c4.418 0 8-3.582 8-8s-3.582-8-8-8v0zM16 21c-2.76-0.004-4.996-2.24-5-5v-0c0.003-2.76 2.24-4.997 5-5h0c2.76 0.003 4.997 2.24 5 5v0c-0.004 2.76-2.24 4.996-5 5h-0zM24.861 8.433c0.484-0.108 0.84-0.533 0.84-1.042 0-0.589-0.478-1.067-1.067-1.067-0.106 0-0.209 0.015-0.305 0.044l0.008-0.002c-0.448 0.133-0.769 0.541-0.769 1.024 0 0.589 0.478 1.067 1.067 1.067 0.080 0 0.158-0.009 0.233-0.026l-0.007 0.001z"></path>
</symbol>
<symbol id="icon-icon-crypt3" viewBox="0 0 35 32">
<path d="M32.078 9.171l-3.87 3.856c-0.414-0.265-0.919-0.422-1.46-0.422-0.761 0-1.449 0.31-1.945 0.811l-0 0-3.105-1.924c0.097-0.28 0.153-0.578 0.153-0.891 0-1.505-1.229-2.729-2.74-2.729s-2.74 1.224-2.74 2.729c0 0.897 0.438 1.691 1.11 2.189l-2.608 5.9c-0.157-0.032-0.337-0.050-0.522-0.050-0.608 0-1.169 0.199-1.623 0.534l0.007-0.005-2.94-2.547c0.208-0.384 0.326-0.824 0.326-1.29 0-1.505-1.228-2.73-2.74-2.73-1.51 0-2.739 1.224-2.739 2.73 0 0.534 0.157 1.031 0.424 1.453l-3.163 3.151c-0.236 0.236-0.236 0.618 0 0.853 0.11 0.11 0.261 0.177 0.428 0.177s0.319-0.068 0.428-0.177v0l3.163-3.151c0.413 0.265 0.918 0.423 1.459 0.423 0.608 0 1.17-0.199 1.624-0.536l-0.007 0.005 2.939 2.546c-0.206 0.372-0.327 0.816-0.327 1.289 0 0.001 0 0.002 0 0.003v-0c0 1.505 1.229 2.73 2.74 2.73s2.74-1.224 2.74-2.73c0-0.897-0.438-1.692-1.11-2.189l2.608-5.9c0.158 0.032 0.339 0.051 0.524 0.051 0.762 0 1.451-0.311 1.947-0.813l0-0 3.105 1.924c-0.096 0.265-0.153 0.572-0.153 0.891v0c0 1.505 1.229 2.73 2.74 2.73s2.74-1.224 2.74-2.73c0-0.534-0.157-1.032-0.425-1.453l3.87-3.856c0.236-0.236 0.236-0.618 0-0.853-0.11-0.109-0.261-0.176-0.428-0.176s-0.319 0.068-0.429 0.177l0-0zM7.382 16.857c-0 0-0.001 0-0.001 0-0.842 0-1.524-0.681-1.527-1.522v-0c0.003-0.841 0.685-1.523 1.527-1.523 0.001 0 0.001 0 0.002 0h-0c0 0 0.001 0 0.001 0 0.842 0 1.524 0.681 1.527 1.522v0c-0.003 0.841-0.685 1.523-1.527 1.523-0 0-0.001 0-0.001 0h0zM14.351 22.892c-0 0-0.001 0-0.001 0-0.842 0-1.524-0.681-1.527-1.522v-0c0.003-0.841 0.685-1.523 1.527-1.523 0 0 0.001 0 0.001 0h-0c0 0 0.001 0 0.001 0 0.842 0 1.524 0.681 1.527 1.522v0c-0.003 0.841-0.685 1.523-1.527 1.523-0 0-0.001 0-0.001 0h0zM19.111 12.125c-0 0-0.001 0-0.002 0-0.842 0-1.524-0.681-1.527-1.522v-0c0.003-0.841 0.685-1.523 1.527-1.523 0 0 0.001 0 0.001 0h-0c0 0 0.001 0 0.001 0 0.842 0 1.524 0.681 1.527 1.522v0c-0.003 0.841-0.685 1.523-1.527 1.523-0 0-0.001 0-0.001 0h0zM26.75 16.857c-0 0-0.001 0-0.001 0-0.842 0-1.524-0.681-1.527-1.522v-0c0.003-0.841 0.685-1.523 1.527-1.523 0 0 0.001 0 0.001 0h-0c0.421 0 0.803 0.171 1.079 0.446h0.001c0.277 0.276 0.448 0.657 0.448 1.076-0.002 0.842-0.685 1.524-1.527 1.524-0 0-0.001 0-0.001 0h0z"></path>
</symbol>
<symbol id="icon-icon-crypt2" viewBox="0 0 31 32">
<path d="M19.25 18.273c-0.261-2.148-2.666-2.544-3.457-2.673-1.667-0.274-2.502-0.913-2.553-1.954-0.059-1.217 0.941-1.882 1.814-2.079 1.143-0.258 2.648 0.118 3.253 1.559l0.001 0.002c0.056 0.13 0.185 0.221 0.336 0.221 0.202 0 0.365-0.164 0.365-0.365 0-0.051-0.011-0.1-0.029-0.142-0.566-1.347-1.739-1.962-2.89-2.064v-1.056c0-0.202-0.164-0.366-0.366-0.366s-0.366 0.164-0.366 0.366v1.059c-0.159 0.016-0.316 0.039-0.468 0.073-1.49 0.338-2.448 1.474-2.382 2.827 0.069 1.418 1.134 2.306 3.165 2.64 1.836 0.301 2.716 0.93 2.85 2.039 0.059 0.483-0.061 0.9-0.355 1.241-0.55 0.636-1.561 0.882-2.324 0.9-1.23 0.032-2.605-0.555-2.947-1.928l-0.001-0.003c-0.040-0.158-0.184-0.275-0.354-0.275-0.202 0-0.366 0.164-0.366 0.366 0 0.031 0.004 0.062 0.011 0.088 0.392 1.571 1.799 2.338 3.169 2.462v1.057c0 0.202 0.164 0.366 0.366 0.366s0.366-0.164 0.366-0.366v-1.052c1.098-0.075 2.071-0.49 2.633-1.138 0.428-0.496 0.611-1.121 0.528-1.807zM15.724 23.946c-4.383 0-7.95-3.567-7.95-7.95s3.567-7.951 7.95-7.951c4.384 0 7.95 3.567 7.95 7.951 0 4.383-3.566 7.95-7.95 7.95zM15.724 7.315c4.787 0 8.681 3.894 8.681 8.681s-3.894 8.681-8.681 8.681-8.681-3.894-8.681-8.681c0-4.787 3.894-8.681 8.681-8.681zM28.512 17.059l-1.971 0.759c-0.114 0.045-0.2 0.145-0.225 0.27l-0.011 0.068c-0.285 1.417-0.85 2.732-1.611 3.848l0.001-0.001c-0.039 0.058-0.063 0.129-0.063 0.205 0 0.054 0.012 0.105 0.031 0.148l0.857 1.931-1.504 1.503-1.927-0.856c-0.046-0.021-0.097-0.032-0.15-0.032-0.076 0-0.147 0.023-0.204 0.062l0.037-0.024c-1.153 0.785-2.468 1.35-3.953 1.647l-0.002 0c-0.123 0.024-0.223 0.11-0.268 0.227l-0.758 1.968h-2.127l-0.759-1.971c-0.045-0.114-0.145-0.2-0.27-0.225l-0.068-0.011c-1.417-0.284-2.732-0.85-3.848-1.611l0.001 0.001c-0.058-0.039-0.129-0.063-0.205-0.063-0.054 0-0.105 0.012-0.148 0.031l-1.931 0.857-1.503-1.503 0.857-1.93c0.051-0.114 0.040-0.247-0.030-0.351l0.024 0.037c-0.785-1.153-1.351-2.469-1.648-3.954l-0-0.002c-0.024-0.122-0.11-0.223-0.226-0.268l-1.969-0.758v-2.127l1.971-0.759c0.114-0.045 0.199-0.145 0.224-0.27l0.011-0.068c0.285-1.416 0.851-2.732 1.612-3.848l-0.001 0.001c0.040-0.058 0.063-0.129 0.063-0.205 0-0.054-0.012-0.105-0.031-0.148l-0.857-1.93 1.503-1.504 1.929 0.856c0.046 0.021 0.097 0.032 0.151 0.032 0.076 0 0.146-0.023 0.204-0.062l-0.037 0.024c1.153-0.785 2.468-1.351 3.953-1.647l0.002-0c0.122-0.025 0.222-0.111 0.268-0.227l0.759-1.97h2.127l0.759 1.971c0.045 0.114 0.145 0.199 0.269 0.225l0.068 0.011c1.416 0.285 2.731 0.85 3.848 1.612l-0.001-0.001c0.058 0.040 0.129 0.063 0.205 0.063 0.054 0 0.105-0.012 0.148-0.031l1.931-0.857 1.504 1.504-0.856 1.927c-0.021 0.046-0.033 0.097-0.033 0.151 0 0.076 0.023 0.147 0.062 0.204l-0.024-0.037c0.785 1.153 1.351 2.468 1.648 3.953l0 0.002c0.025 0.122 0.11 0.223 0.226 0.268l1.969 0.758v2.127zM29.008 14.34l-2.017-0.776c-0.315-1.445-0.863-2.722-1.608-3.858l0.027 0.043 0.877-1.976c0.020-0.044 0.032-0.095 0.032-0.149 0-0.101-0.041-0.192-0.107-0.258v0l-1.858-1.859c-0.066-0.066-0.158-0.107-0.259-0.107-0.053 0-0.104 0.011-0.15 0.032l0.002-0.001-1.977 0.878c-1.092-0.718-2.369-1.266-3.738-1.567l-0.076-0.014-0.776-2.018c-0.055-0.138-0.187-0.233-0.341-0.233-0 0-0 0-0 0h-2.628c-0 0-0 0-0 0-0.155 0-0.287 0.096-0.341 0.232l-0.001 0.002-0.776 2.017c-1.445 0.315-2.722 0.863-3.857 1.608l0.043-0.027-1.977-0.879c-0.044-0.020-0.095-0.031-0.148-0.031-0.101 0-0.192 0.041-0.259 0.107v0l-1.859 1.859c-0.066 0.066-0.107 0.158-0.107 0.259 0 0.054 0.012 0.105 0.032 0.151l-0.001-0.002 0.879 1.976c-0.719 1.092-1.267 2.369-1.568 3.739l-0.014 0.075-2.018 0.776c-0.141 0.054-0.234 0.19-0.234 0.341v2.629c0 0.151 0.093 0.286 0.233 0.341l2.017 0.776c0.315 1.445 0.863 2.722 1.608 3.858l-0.027-0.043-0.878 1.976c-0.020 0.044-0.032 0.095-0.032 0.148 0 0.101 0.041 0.192 0.107 0.258l1.859 1.859c0.066 0.066 0.158 0.107 0.259 0.107 0.054 0 0.105-0.012 0.15-0.032l-0.002 0.001 1.976-0.879c1.093 0.719 2.37 1.266 3.739 1.568l0.076 0.014 0.776 2.017c0.054 0.141 0.19 0.234 0.342 0.234h2.628c0 0 0.001 0 0.001 0 0.154 0 0.286-0.096 0.34-0.231l0.001-0.002 0.776-2.017c1.445-0.315 2.722-0.863 3.858-1.608l-0.043 0.027 1.976 0.878c0.044 0.020 0.095 0.031 0.148 0.031 0.101 0 0.192-0.041 0.258-0.107v0l1.859-1.859c0.066-0.066 0.107-0.157 0.107-0.258 0-0.054-0.012-0.105-0.033-0.151l0.001 0.002-0.878-1.976c0.718-1.092 1.266-2.369 1.567-3.738l0.014-0.076 2.018-0.776c0.141-0.054 0.233-0.19 0.233-0.341v-2.628c0-0.152-0.092-0.287-0.233-0.342h-0.001z"></path>
</symbol>
<symbol id="icon-icon-crypt1" viewBox="0 0 31 32">
<path d="M26.389 9.055h-1.951v-3.554c0-0.3-0.244-0.544-0.546-0.544s-0.546 0.244-0.546 0.544v3.554h-1.995c-0.3 0.004-0.542 0.245-0.546 0.544v13.056c0 0.3 0.244 0.544 0.546 0.544h1.973v3.292c0 0.301 0.244 0.545 0.546 0.545s0.546-0.244 0.546-0.544v-3.279h1.973c0.302 0 0.546-0.243 0.546-0.544v-13.055c0-0.003 0-0.006 0-0.009 0-0.302-0.244-0.548-0.546-0.549h-0zM25.842 22.111h-3.946v-11.968h3.946v11.968zM18.219 10.673h-1.973v-5.172c0-0.3-0.244-0.544-0.546-0.544s-0.546 0.244-0.546 0.544v5.172h-1.973c-0.302 0-0.546 0.244-0.546 0.544v13.055c0.004 0.299 0.246 0.54 0.546 0.544h1.973v1.676c0 0.3 0.244 0.543 0.546 0.543s0.546-0.244 0.546-0.544v-1.661h1.973c0.3-0.004 0.542-0.245 0.546-0.544v-13.056c0-0.004 0-0.009 0-0.014 0-0.148-0.059-0.282-0.155-0.379l0 0c-0.099-0.101-0.238-0.164-0.391-0.164-0 0-0 0-0 0h0zM17.674 23.729h-3.946v-11.967h3.946v11.967zM10.050 9.302h-1.973v-3.8c0-0.3-0.244-0.544-0.546-0.544s-0.546 0.244-0.546 0.544v3.8h-1.974c-0.302 0-0.546 0.244-0.546 0.544v13.056c0.004 0.299 0.246 0.54 0.546 0.544h1.951v3.046c0 0.3 0.245 0.544 0.546 0.544s0.546-0.244 0.546-0.544v-3.047h1.973c0.3-0.004 0.542-0.245 0.546-0.544v-13.056c0-0.292-0.232-0.532-0.524-0.544zM9.504 22.358h-3.946v-11.968h3.946v11.968z"></path>
</symbol>
<symbol id="icon-facebook" viewBox="0 0 32 32">
<path d="M21.329 5.313h2.921v-5.087c-0.504-0.071-2.237-0.227-4.256-0.227-4.212 0-7.097 2.649-7.097 7.52v4.48h-4.648v5.688h4.648v14.312h5.699v-14.311h4.46l0.708-5.688h-5.169v-3.919c0.001-1.644 0.444-2.769 2.735-2.769z"></path>
</symbol>
<symbol id="icon-twitter" viewBox="0 0 32 32">
<path d="M10.427 28.013c11.32 0 17.512-9.379 17.512-17.512 0-0.267-0.007-0.531-0.017-0.795 1.208-0.882 2.227-1.937 3.041-3.142l0.028-0.044c-1.029 0.469-2.223 0.81-3.474 0.962l-0.059 0.006c1.272-0.771 2.229-1.954 2.694-3.36l0.012-0.044c-1.125 0.679-2.435 1.197-3.83 1.48l-0.079 0.013c-1.126-1.203-2.724-1.952-4.497-1.952-3.4 0-6.156 2.756-6.156 6.156 0 0.5 0.060 0.986 0.172 1.451l-0.009-0.042c-5.127-0.265-9.637-2.701-12.661-6.399l-0.025-0.031c-0.524 0.885-0.833 1.951-0.833 3.088 0 0.002 0 0.003 0 0.005v-0c0 2.136 1.087 4.021 2.739 5.124-1.028-0.033-1.984-0.314-2.817-0.786l0.030 0.016-0.001 0.080c0.001 2.968 2.101 5.445 4.896 6.026l0.040 0.007c-0.485 0.137-1.042 0.216-1.618 0.216-0.411 0-0.813-0.040-1.201-0.117l0.039 0.006c0.81 2.465 3.068 4.223 5.745 4.275l0.006 0c-2.077 1.642-4.735 2.635-7.624 2.635-0.008 0-0.015 0-0.023-0h0.001c-0.496 0-0.987-0.028-1.467-0.085 2.662 1.734 5.92 2.765 9.419 2.765 0.005 0 0.010 0 0.015 0h-0.001z"></path>
</symbol>
<symbol id="icon-ethereum" viewBox="0 0 20 32">
<path fill="#343434" style="fill: var(--color1, #343434)" d="M9.452 0l-0.207 0.727v21.155l0.204 0.215 9.455-5.804-9.455-16.294z"></path>
<path fill="#8c8c8c" style="fill: var(--color2, #8c8c8c)" d="M9.452 0l-9.452 16.291 9.452 5.807v-22.097z"></path>
<path fill="#3c3c3b" style="fill: var(--color3, #3c3c3b)" d="M9.452 23.956l-0.116 0.145v7.537l0.116 0.355 9.455-13.839-9.455 5.801z"></path>
<path fill="#8c8c8c" style="fill: var(--color2, #8c8c8c)" d="M9.452 31.994v-8.038l-9.452-5.801 9.452 13.839z"></path>
<path fill="#141414" style="fill: var(--color4, #141414)" d="M9.452 22.097l9.452-5.804-9.452-4.463v10.269z"></path>
<path fill="#393939" style="fill: var(--color5, #393939)" d="M0 16.291l9.455 5.807v-10.269l-9.455 4.468z"></path>
</symbol>
<symbol id="icon-binance" viewBox="0 0 28 30">
<path d="M19.949 15.955l3.264 3.11-8.832 8.41-8.813-8.41 3.264-3.11 5.562 5.331 5.562-5.331zM25.517 10.656l3.283 3.104-3.264 3.104-3.258-3.104 3.232-3.104zM14.381 10.656l3.264 3.072-3.264 3.11-3.251-3.078 3.258-3.104zM3.258 10.656l3.232 3.104-3.226 3.078-3.264-3.078 3.264-3.104zM14.4 0.045l8.819 8.384-3.264 3.104-5.568-5.299-5.555 5.331-3.264-3.11 8.832-8.41z"></path>
</symbol>
<symbol id="icon-bitcoin" viewBox="0 0 25 32">
<path d="M22.912 14.437c0.421-2.88-1.765-4.443-4.786-5.481l0.983-3.918-2.377-0.594-0.946 3.817c-0.205-0.068-0.851-0.22-1.501-0.362l-0.419-0.077 0.951-3.835-2.377-0.594-0.96 3.904c-1.228-0.258-1.743-0.381-2.256-0.508l0.725 0.152v-0.018l-3.291-0.814-0.626 2.546s1.765 0.407 1.733 0.421c0.965 0.238 1.134 0.882 1.097 1.394l-1.115 4.462c0.069 0.014 0.151 0.032 0.256 0.082-0.097-0.017-0.183-0.041-0.266-0.072l0.010 0.003-1.559 6.245c-0.119 0.288-0.425 0.731-1.088 0.558-0.83-0.177-1.41-0.322-1.985-0.481l0.257 0.061-1.189 2.729 3.104 0.777c0.576 0.155 1.138 0.293 1.696 0.443l-0.983 3.954 2.377 0.594 0.983-3.918c0.64 0.169 1.289 0.338 1.897 0.489l-0.965 3.904 2.377 0.594 0.978-3.954c4.073 0.763 7.127 0.457 8.398-3.223 1.038-2.953-0.046-4.663-2.185-5.787 1.577-0.352 2.743-1.39 3.054-3.493zM17.463 22.071c-0.731 2.953-5.714 1.358-7.328 0.951l1.307-5.243c1.614 0.411 6.802 1.207 6.021 4.293zM18.213 14.386c-0.681 2.697-4.818 1.326-6.158 0.983l1.189-4.75c1.335 0.338 5.664 0.969 4.969 3.767z"></path>
</symbol>
</defs>
</svg>
