<svg aria-hidden="true" style="position: absolute; width: 0; height: 0; overflow: hidden;" version="1.1" xmlns="http://www.w3.org/2000/svg" xmlns:xlink="http://www.w3.org/1999/xlink">
<defs>
<symbol id="icon-burger-menu" viewBox="0 0 44 32">
<path d="M0 2.4c0-0.636 0.218-1.246 0.604-1.698 0.35-0.423 0.873-0.693 1.458-0.702l0.002-0h39.874c0.546 0 1.070 0.252 1.458 0.702 0.386 0.452 0.604 1.060 0.604 1.698 0 0.636-0.218 1.246-0.604 1.698-0.35 0.423-0.873 0.693-1.459 0.702l-0.002 0h-39.872c-0.587-0.009-1.11-0.279-1.457-0.699l-0.003-0.003c-0.376-0.449-0.604-1.033-0.604-1.671 0-0.010 0-0.019 0-0.029v0.001zM0 16c0-0.636 0.218-1.246 0.604-1.698 0.35-0.423 0.873-0.693 1.458-0.702l0.002-0h39.874c0.546 0 1.070 0.252 1.458 0.702 0.386 0.452 0.604 1.060 0.604 1.698 0 0.636-0.218 1.246-0.604 1.698-0.35 0.423-0.873 0.693-1.459 0.702l-0.002 0h-39.872c-0.587-0.009-1.11-0.279-1.457-0.699l-0.003-0.003c-0.376-0.449-0.604-1.033-0.604-1.671 0-0.010 0-0.019 0-0.029v0.001zM2.062 27.2c-0.587 0.009-1.11 0.279-1.457 0.699l-0.003 0.003c-0.384 0.452-0.602 1.060-0.602 1.698 0 0.636 0.218 1.246 0.604 1.696 0.35 0.424 0.873 0.695 1.458 0.704l0.002 0h26.124c0.587-0.009 1.108-0.279 1.455-0.699l0.003-0.003c0.386-0.45 0.604-1.060 0.604-1.698 0-0.636-0.218-1.246-0.604-1.698-0.35-0.423-0.873-0.693-1.459-0.702l-0.001-0h-26.122z"></path>
</symbol>
</defs>
</svg>
