<svg width="289" height="295" viewBox="0 0 289 295" fill="none" xmlns="http://www.w3.org/2000/svg">
<g clip-path="url(#clip0_4722_20)">
<path d="M107.318 109.65C109.438 107.322 112.938 108.002 115.267 109.646C118.265 111.761 119.122 115.624 119.564 119.048C120.313 124.844 120.534 133.038 127.125 135.461C130.17 136.581 133.656 135.656 136.228 133.838C139.037 131.852 140.789 128.798 141.963 125.632C143.384 121.799 144.207 117.699 144.904 113.683C145.617 109.575 146.084 105.423 146.294 101.26C146.5 97.1865 146.366 93.1399 146.204 89.0693C146.077 85.891 146.028 82.5536 147.105 79.5145C148.192 76.4451 150.72 74.1105 154.044 73.8025C157.27 73.5036 160.593 74.8604 162.927 77.0502C168.527 82.3043 168.791 90.8817 170.042 97.9265C170.7 101.628 171.662 105.373 173.677 108.593C175.334 111.242 177.638 113.462 180.291 115.109C185.642 118.432 192.462 119.402 198.4 117.119C204.197 114.89 208.864 110.019 210.884 104.163C211.382 102.717 211.69 101.223 211.847 99.703C211.919 98.9964 210.811 99.0014 210.739 99.703C210.075 106.163 205.917 112.013 200.22 115.076C194.358 118.229 187.258 117.829 181.531 114.561C178.715 112.954 176.266 110.688 174.564 107.924C172.5 104.573 171.616 100.666 170.973 96.8303C169.811 89.9026 169.285 81.9485 164.079 76.6294C160.041 72.5042 152.611 70.8487 148.272 75.4437C143.804 80.1751 145.143 87.7966 145.286 93.67C145.495 102.272 144.606 110.893 142.635 119.27C141.777 122.917 140.79 126.677 138.636 129.803C136.668 132.661 133.452 134.876 129.87 134.84C126.298 134.805 123.788 132.187 122.52 129.066C121.182 125.773 121.095 122.216 120.632 118.74C120.207 115.549 119.433 112.018 117.033 109.682C115.167 107.866 112.399 106.697 109.773 107.115C108.511 107.316 107.392 107.927 106.535 108.869C106.057 109.395 106.838 110.178 107.318 109.65H107.318Z" fill="#269E96"/>
<path d="M267.424 227.774C266.8 226.725 264.103 227.848 263.607 226.896C263.113 225.948 265.619 224.503 267.051 221.203C267.309 220.607 268.937 216.856 267.732 215.699C265.448 213.505 254.999 222.559 251.342 219.596C250.54 218.946 249.979 217.648 247.55 215.54C246.584 214.702 246 214.324 245.434 214.464C244.632 214.664 244.568 215.735 243.708 217.841C242.417 220.999 241.654 220.808 240.903 223.328C240.344 225.198 240.472 226.286 239.815 226.497C238.886 226.797 238.031 224.813 236.853 224.991C235.651 225.172 234.924 227.482 234.695 229.212C234.264 232.457 235.459 234.599 236.122 236.851C236.842 239.298 237.269 243.02 235.606 248.288L219.153 294.521C222.785 285.034 233.303 259.028 237.722 249.364C238.998 246.574 240.407 243.745 243.299 242.628C246.084 241.553 249.909 242.195 254.785 241.023C255.354 240.886 256.934 240.485 257.133 239.558C257.298 238.792 256.368 238.364 256.511 237.647C256.702 236.684 258.53 236.672 260.776 235.561C262.36 234.778 263.347 233.847 264.196 233.046C264.451 232.804 268.254 229.17 267.424 227.774H267.424H267.424Z" fill="#F2F2F2"/>
<path d="M202.691 252.113C201.995 252.116 201.769 253.76 201.158 253.728C200.548 253.697 200.561 252.053 199.349 250.4C199.131 250.102 197.755 248.223 196.837 248.478C195.099 248.963 196.539 256.69 194.026 257.625C193.475 257.831 192.674 257.731 190.936 258.311C190.245 258.542 189.89 258.719 189.796 259.037C189.663 259.487 190.172 259.827 190.96 260.856C192.141 262.399 191.827 262.717 192.85 263.812C193.61 264.625 194.182 264.876 194.097 265.259C193.976 265.8 192.753 265.647 192.501 266.274C192.243 266.915 193.17 267.937 193.955 268.548C195.428 269.696 196.827 269.729 198.126 270.054C199.538 270.408 201.493 271.273 203.606 273.606L221.612 295C217.991 290.485 208.227 277.833 204.746 272.881C203.741 271.452 202.755 269.946 203.04 268.208C203.315 266.534 204.734 264.847 205.564 262.123C205.661 261.805 205.92 260.915 205.521 260.551C205.191 260.249 204.713 260.581 204.401 260.303C203.982 259.932 204.504 259.034 204.605 257.614C204.677 256.613 204.503 255.861 204.354 255.214C204.309 255.02 203.617 252.11 202.691 252.113V252.113Z" fill="#F2F2F2"/>
<path d="M216.576 255.222L216.156 251.488L216.348 251.205C217.235 249.897 217.687 248.619 217.692 247.406C217.693 247.213 217.684 247.02 217.675 246.823C217.639 246.045 217.593 245.077 218.1 243.948C218.383 243.319 219.18 241.863 220.379 242.043C220.701 242.088 220.945 242.236 221.131 242.409C221.158 242.365 221.186 242.322 221.216 242.275C221.589 241.707 221.884 241.464 222.169 241.23C222.388 241.05 222.614 240.864 222.968 240.424C223.123 240.231 223.244 240.062 223.347 239.919C223.657 239.489 224.061 238.975 224.775 238.984C225.538 239.02 225.938 239.649 226.202 240.065C226.675 240.808 226.889 241.343 227.031 241.698C227.083 241.828 227.141 241.974 227.171 242.019C227.417 242.38 229.415 242.043 230.168 241.92C231.859 241.639 233.322 241.396 233.925 242.459C234.357 243.22 234.036 244.226 232.942 245.529C232.602 245.935 232.239 246.243 231.918 246.484C232.184 246.643 232.423 246.886 232.519 247.269C232.747 248.173 231.967 249.08 230.202 249.967C229.764 250.189 229.174 250.484 228.347 250.627C227.957 250.693 227.607 250.71 227.307 250.719C227.3 250.892 227.26 251.079 227.154 251.272C226.844 251.84 226.199 252.11 225.226 252.045C224.156 251.99 223.275 251.786 222.498 251.607C221.819 251.452 221.235 251.321 220.775 251.351C219.924 251.42 219.268 252.1 218.498 252.981L216.576 255.222H216.576Z" fill="#F2F2F2"/>
<path d="M218.521 232.994L215.007 234.346L214.684 234.233C213.189 233.709 211.835 233.598 210.657 233.9C210.47 233.948 210.285 234.006 210.097 234.064C209.351 234.297 208.423 234.586 207.2 234.384C206.518 234.27 204.903 233.87 204.774 232.668C204.736 232.346 204.818 232.073 204.939 231.85C204.89 231.835 204.841 231.819 204.788 231.802C204.142 231.586 203.831 231.363 203.532 231.147C203.301 230.982 203.064 230.811 202.548 230.581C202.321 230.48 202.126 230.406 201.962 230.344C201.465 230.154 200.865 229.894 200.692 229.203C200.534 228.458 201.043 227.913 201.379 227.552C201.98 226.908 202.445 226.565 202.753 226.338C202.866 226.256 202.993 226.162 203.029 226.122C203.316 225.793 202.482 223.951 202.172 223.256C201.471 221.696 200.864 220.346 201.742 219.495C202.371 218.885 203.427 218.94 204.969 219.664C205.449 219.89 205.84 220.161 206.156 220.41C206.242 220.113 206.417 219.821 206.763 219.631C207.583 219.182 208.661 219.704 209.968 221.182C210.295 221.548 210.731 222.043 211.079 222.804C211.242 223.163 211.347 223.497 211.432 223.784C211.601 223.747 211.794 223.738 212.007 223.791C212.637 223.946 213.063 224.5 213.246 225.455C213.464 226.501 213.49 227.403 213.514 228.198C213.535 228.892 213.556 229.489 213.702 229.924C213.985 230.728 214.81 231.189 215.86 231.708L218.521 232.994H218.521Z" fill="#F2F2F2"/>
<path d="M216.576 221.996L216.156 218.263L216.348 217.98C217.235 216.671 217.687 215.393 217.692 214.18C217.693 213.987 217.684 213.794 217.675 213.598C217.639 212.819 217.593 211.851 218.1 210.723C218.383 210.093 219.18 208.637 220.379 208.817C220.701 208.862 220.945 209.01 221.131 209.183C221.158 209.14 221.186 209.097 221.216 209.05C221.589 208.482 221.884 208.239 222.169 208.004C222.388 207.824 222.614 207.638 222.968 207.198C223.123 207.006 223.244 206.836 223.347 206.694C223.657 206.263 224.061 205.749 224.775 205.758C225.538 205.794 225.938 206.423 226.202 206.84C226.675 207.582 226.889 208.118 227.031 208.473C227.083 208.603 227.141 208.749 227.171 208.794C227.417 209.154 229.415 208.817 230.168 208.695C231.859 208.413 233.322 208.17 233.925 209.234C234.357 209.994 234.036 211 232.942 212.303C232.602 212.709 232.239 213.017 231.918 213.259C232.184 213.417 232.423 213.661 232.519 214.043C232.747 214.948 231.967 215.855 230.202 216.741C229.764 216.963 229.174 217.259 228.347 217.401C227.957 217.468 227.607 217.484 227.307 217.493C227.3 217.666 227.26 217.854 227.154 218.047C226.844 218.614 226.199 218.885 225.226 218.82C224.156 218.764 223.275 218.56 222.498 218.382C221.819 218.227 221.235 218.095 220.775 218.126C219.924 218.194 219.268 218.874 218.498 219.755L216.576 221.996H216.576Z" fill="#F2F2F2"/>
<path d="M220.406 294.461L219.621 293.97L219.432 293.067L219.621 293.97L218.707 294.075C218.692 293.99 218.643 293.796 218.568 293.491C218.158 291.822 216.91 286.742 215.869 278.742C215.142 273.158 214.731 267.416 214.646 261.675C214.561 255.925 214.834 251.571 215.053 248.073C215.218 245.434 215.419 242.921 215.616 240.473C216.14 233.933 216.635 227.755 216.267 220.916C216.185 219.39 216.015 216.212 214.153 212.83C213.073 210.869 211.585 209.127 209.731 207.656L210.884 206.211C212.931 207.837 214.577 209.765 215.776 211.943C217.84 215.692 218.026 219.155 218.116 220.819C218.49 227.779 217.99 234.016 217.461 240.619C217.265 243.058 217.065 245.56 216.9 248.188C216.683 251.654 216.413 255.97 216.497 261.646C216.58 267.319 216.987 272.99 217.704 278.504C218.732 286.403 219.962 291.407 220.366 293.051C220.581 293.929 220.626 294.113 220.406 294.461V294.461L220.406 294.461Z" fill="#F2F2F2"/>
<path d="M206.337 210.589C206.261 210.589 206.184 210.587 206.106 210.582C204.53 210.497 203.071 209.556 201.767 207.786C201.156 206.953 200.844 206.003 200.22 204.109C200.123 203.817 199.654 202.335 199.368 200.296C199.181 198.964 199.204 198.407 199.469 197.915C199.763 197.367 200.238 196.985 200.773 196.727C200.75 196.551 200.769 196.368 200.846 196.183C201.161 195.413 202 195.514 202.453 195.563C202.683 195.592 202.969 195.629 203.278 195.613C203.765 195.59 204.026 195.446 204.422 195.229C204.8 195.022 205.271 194.764 205.97 194.622C207.347 194.335 208.501 194.725 208.882 194.852C210.883 195.518 211.87 197.07 213.012 198.867C213.24 199.227 214.022 200.54 214.538 202.339C214.91 203.637 214.858 204.213 214.746 204.642C214.518 205.524 213.98 206.029 212.615 207.143C211.189 208.309 210.473 208.893 209.858 209.248C208.428 210.072 207.53 210.589 206.337 210.589V210.589Z" fill="#F2F2F2"/>
<path d="M167.176 64.331H141.902C141.265 64.331 140.746 63.8139 140.746 63.1784C140.746 62.543 141.265 62.0261 141.902 62.0261H167.176C167.814 62.0261 168.332 62.543 168.332 63.1784C168.332 63.8139 167.814 64.331 167.176 64.331V64.331Z" fill="#E6E6E6"/>
<path d="M206.322 131.361H181.047C180.41 131.361 179.891 130.844 179.891 130.208C179.891 129.573 180.41 129.056 181.047 129.056H206.322C206.959 129.056 207.477 129.573 207.477 130.208C207.477 130.844 206.959 131.361 206.322 131.361V131.361Z" fill="#E6E6E6"/>
<path d="M111.783 39.2866H86.5082C85.871 39.2866 85.3525 38.7695 85.3525 38.134C85.3525 37.4985 85.871 36.9817 86.5082 36.9817H111.783C112.42 36.9817 112.938 37.4985 112.938 38.134C112.938 38.7695 112.42 39.2866 111.783 39.2866V39.2866Z" fill="#E6E6E6"/>
<path d="M-79.3699 293.603C-79.3699 294.089 -78.9784 294.479 -78.4909 294.479H307.263C307.751 294.479 308.142 294.089 308.142 293.603C308.142 293.117 307.751 292.726 307.263 292.726H-78.4909C-78.9784 292.726 -79.3699 293.117 -79.3699 293.603Z" fill="#CCCCCC"/>
<path d="M214.031 163.657H99.4764C99.0685 163.657 98.7378 163.327 98.7378 162.92V53.9038C98.7378 53.4967 99.0685 53.1672 99.4764 53.1672C99.8843 53.1672 100.215 53.4967 100.215 53.9038V98.3855C100.215 133.62 128.855 162.183 164.185 162.183H214.031C214.439 162.183 214.769 162.513 214.769 162.92C214.769 163.327 214.439 163.657 214.031 163.657H214.031Z" fill="#E6E6E6"/>
<path d="M123.6 119.843H98.3256C97.6884 119.843 97.1699 119.326 97.1699 118.691C97.1699 118.055 97.6884 117.539 98.3256 117.539H123.6C124.238 117.539 124.756 118.055 124.756 118.691C124.756 119.326 124.238 119.843 123.6 119.843V119.843Z" fill="#E6E6E6"/>
<path d="M98.5394 123.123C102.548 121.803 105.114 118.67 104.271 116.126C103.428 113.582 99.496 112.591 95.4863 113.912C93.8773 114.418 92.4132 115.3 91.2165 116.486L74.3035 122.294L77.2053 130.151L93.5705 123.592C95.2406 123.834 96.9444 123.673 98.5394 123.123V123.123Z" fill="#FFB6B6"/>
<path d="M11.5989 168.157C11.7358 172.364 14.0237 175.705 16.7087 175.617C19.3938 175.53 21.4588 172.049 21.3213 167.839C21.2895 166.157 20.8543 164.507 20.052 163.027L19.2464 145.206L10.8689 145.761L12.5525 163.271C11.8479 164.8 11.521 166.475 11.5989 168.157L11.5989 168.157Z" fill="#FFB6B6"/>
<path d="M30.9397 288.238L38.4175 288.238L40.3334 259.282L30.9382 259.473L30.9397 288.238Z" fill="#FFB6B6"/>
<path d="M56.5595 288.069C56.7924 288.46 56.9152 289.722 56.9152 290.177C56.9152 291.575 55.779 292.708 54.3772 292.708H31.2195C30.2633 292.708 29.4881 291.935 29.4881 290.982V290.02C29.4881 290.02 28.3425 287.13 30.7011 283.568C30.7011 283.568 33.6325 286.357 38.0127 281.989L39.3044 279.655L48.6545 286.475L53.8371 287.111C54.9709 287.25 55.9762 287.089 56.5595 288.069H56.5595V288.069Z" fill="#2F2E41"/>
<path d="M48.6656 288.238L56.1433 288.238L58.0592 259.282L48.6641 259.473L48.6656 288.238Z" fill="#FFB6B6"/>
<path d="M74.2854 288.069C74.5182 288.46 74.641 289.722 74.641 290.177C74.641 291.575 73.5048 292.708 72.1031 292.708H48.9454C47.9892 292.708 47.2139 291.935 47.2139 290.982V290.02C47.2139 290.02 46.0684 287.13 48.4269 283.568C48.4269 283.568 51.3583 286.357 55.7385 281.989L57.0302 279.655L66.3803 286.475L71.5629 287.111C72.6968 287.25 73.702 287.089 74.2853 288.069H74.2854V288.069Z" fill="#2F2E41"/>
<path d="M35.2911 72.5655C41.3662 72.5655 46.291 67.654 46.291 61.5953C46.291 55.5366 41.3662 50.625 35.2911 50.625C29.2161 50.625 24.2913 55.5366 24.2913 61.5953C24.2913 67.654 29.2161 72.5655 35.2911 72.5655Z" fill="#FFB6B6"/>
<path d="M20.0713 152.844L25.2414 226.503L28.1957 275.855L42.2288 275.119L40.7516 221.347L43.7059 188.2L48.1374 275.119H59.3063L63.6477 153.58L39.6437 150.266L20.0713 152.844Z" fill="#2F2E41"/>
<path d="M39.2744 70.3449C36.1458 73.3484 28.9157 71.3569 25.2413 70.3449C23.2188 69.7879 21.9982 69.2138 21.5484 68.1351C21.2357 67.3853 21.4134 66.6744 20.8098 65.1887C20.4563 64.3185 20.2698 64.2536 20.0712 63.7156C19.5175 62.2157 20.2866 60.8793 20.8098 59.296C21.9015 55.9922 20.5981 55.6212 21.5484 53.4032C22.9771 50.0688 26.8634 48.7121 28.1956 48.2471C30.6831 47.3787 32.7575 47.4705 33.3657 47.5105C37.2621 47.7663 39.867 49.7603 40.7515 50.4568C42.5446 51.8689 43.4241 53.3625 45.183 56.3496C46.7137 58.949 46.8253 59.9465 46.6602 60.7692C46.4086 62.0227 45.6838 62.0274 45.183 63.7156C44.6146 65.6319 45.2612 66.595 44.4444 67.3985C43.8924 67.9417 43.3793 67.7158 42.2287 68.1351C40.6451 68.7123 39.8635 69.7794 39.2744 70.3449Z" fill="#2F2E41"/>
<path d="M48.1375 81.3939C48.1375 81.3939 37.0587 67.3986 23.0257 72.5548L18.4808 81.3939L16.9623 82.8274C10.5927 88.8406 7.62913 97.6136 9.0518 106.245L15.6398 146.214C15.6398 146.214 14.9013 161.683 20.0713 166.102C20.0713 166.102 27.4572 152.107 45.1831 158.736C62.9091 165.366 66.602 161.683 66.602 161.683L60.6934 119.697L48.1375 81.3939Z" fill="#2F2E41"/>
<path d="M44.4446 83.6036L40.7517 91.7061L54.7848 138.848L93.1911 124.853L88.021 116.014L69.5564 121.17C69.5564 121.17 55.5234 79.9206 44.4446 83.6036Z" fill="#2F2E41"/>
<path d="M18.2249 157.632H10.1005L8.62329 98.7039L18.2249 118.592V157.632Z" fill="#2F2E41"/>
<path d="M107.224 112.699C109.06 112.699 110.548 111.215 110.548 109.385C110.548 107.554 109.06 106.07 107.224 106.07C105.389 106.07 103.901 107.554 103.901 109.385C103.901 111.215 105.389 112.699 107.224 112.699Z" fill="#3F3D56"/>
<path d="M129.382 138.48C131.217 138.48 132.705 136.996 132.705 135.165C132.705 133.335 131.217 131.851 129.382 131.851C127.546 131.851 126.058 133.335 126.058 135.165C126.058 136.996 127.546 138.48 129.382 138.48Z" fill="#3F3D56"/>
<path d="M154.494 76.6059C156.329 76.6059 157.817 75.1219 157.817 73.2912C157.817 71.4606 156.329 69.9766 154.494 69.9766C152.658 69.9766 151.17 71.4606 151.17 73.2912C151.17 75.1219 152.658 76.6059 154.494 76.6059Z" fill="#3F3D56"/>
<path d="M191.422 120.802C193.258 120.802 194.746 119.318 194.746 117.487C194.746 115.656 193.258 114.172 191.422 114.172C189.587 114.172 188.099 115.656 188.099 117.487C188.099 119.318 189.587 120.802 191.422 120.802Z" fill="#3F3D56"/>
<path d="M212.841 103.123C214.677 103.123 216.165 101.639 216.165 99.8086C216.165 97.9779 214.677 96.4939 212.841 96.4939C211.006 96.4939 209.518 97.9779 209.518 99.8086C209.518 101.639 211.006 103.123 212.841 103.123Z" fill="#3F3D56"/>
<path d="M206.51 29.4816L212.588 32.3532C210.095 28.8833 207.947 23.464 206.797 19.1516C204.849 23.1686 201.71 28.0836 198.603 31.0196L205.027 29.3713C201.069 48.7202 186.179 62.6107 169.129 62.6107L168.887 63.3096C186.697 63.3096 202.468 49.6116 206.51 29.4816V29.4816Z" fill="#3F3D56"/>
<path d="M214.081 169.685C213.676 169.685 213.267 169.595 212.878 169.413C211.919 168.964 211.316 168.065 211.267 167.009L210.869 158.445C210.818 157.345 211.393 156.345 212.371 155.835C213.349 155.324 214.502 155.423 215.378 156.091L221.226 160.551C221.93 161.087 222.331 161.901 222.328 162.783C222.326 163.667 221.919 164.477 221.213 165.01L215.763 169.113C215.26 169.492 214.674 169.685 214.081 169.685V169.685Z" fill="#E6E6E6"/>
<path d="M106.269 54.618C106.269 55.0219 106.179 55.4294 105.996 55.8175C105.545 56.7746 104.644 57.3756 103.585 57.4245L94.9981 57.8216C93.8953 57.8727 92.8927 57.2986 92.3806 56.3232C91.8685 55.3482 91.9681 54.1987 92.6374 53.3243L97.11 47.492C97.6473 46.7906 98.4638 46.39 99.3481 46.3928C100.234 46.3954 101.047 46.8011 101.58 47.5056L105.695 52.9409C106.075 53.4426 106.269 54.0264 106.269 54.618Z" fill="#E6E6E6"/>
<path d="M154.221 47.0337C149.848 45.9891 145.176 46.9345 141.439 49.3969C137.519 51.9791 134.924 56.114 134.046 60.6948C132.234 70.1454 137.77 79.5865 146.52 83.3479C155.719 87.3021 166.662 84.6489 173.342 77.3101C176.653 73.6726 178.722 69.0708 179.345 64.2044C179.959 59.4103 179.259 53.8791 176.348 49.878C173.461 45.9092 168.653 44.5774 164.01 43.927C159.505 43.2959 153.528 43.0216 151.092 47.7774C150.628 48.6841 150.409 49.6612 150.461 50.6782C150.497 51.3858 151.605 51.39 151.569 50.6782C151.456 48.4546 152.942 46.5966 154.848 45.5973C157.056 44.4391 159.719 44.5372 162.127 44.7953C166.475 45.2613 171.411 46.0927 174.546 49.4227C177.669 52.7399 178.605 57.7949 178.411 62.1981C178.209 66.7942 176.621 71.3178 173.839 74.9935C168.348 82.247 158.742 85.6979 149.905 83.3547C141.294 81.0715 141.182 75.9752 141.324 66.9501C141.4 62.1353 136.839 54.5568 140.563 51.4192C144.208 48.3472 149.261 46.9845 153.926 48.0991C154.619 48.2646 154.915 47.1995 154.221 47.0337L154.221 47.0337Z" fill="#269E96"/>
</g>
<defs>
<clipPath id="clip0_4722_20">
<rect width="289" height="295" fill="white"/>
</clipPath>
</defs>
</svg>
